<svg width="91" height="36" viewBox="0 0 91 36" fill="none" xmlns="http://www.w3.org/2000/svg">
<path d="M6.78309 1.00701C7.46568 0.999008 8.12789 0.773009 8.81455 0.805009C12.2234 0.835009 15.6343 0.755007 19.0432 0.847007C20.0436 1.07701 21.0726 0.959008 22.0873 1.04501C23.0491 1.28701 24.0495 1.13101 25.0153 1.35301C30.1622 1.91301 35.2725 2.87901 40.2075 4.43301C41.7275 4.94101 43.3943 5.36301 44.5373 6.54501C44.9591 6.92101 44.9856 7.51301 45.1364 8.01701C45.3218 8.88101 45.5867 9.72501 45.8271 10.577C45.929 9.53501 46.2346 8.52701 46.4465 7.50501C46.6646 6.62101 47.4164 5.94101 48.3109 5.73501C52.8282 4.47701 57.3333 3.11301 61.9831 2.40101C64.4872 2.04901 66.9914 1.69301 69.5139 1.55301C70.3208 1.36301 71.1501 1.40701 71.9733 1.40901C72.7292 1.42701 73.4628 1.19901 74.2187 1.20901C77.4116 1.20501 80.6045 1.20901 83.7973 1.20701C84.6103 1.21101 85.4294 1.17101 86.2363 1.29101C87.7217 1.55701 89.256 1.23101 90.7271 1.62301C90.7271 1.75901 90.7251 2.02701 90.7251 2.16301C89.5331 2.44501 88.3126 2.37901 87.1023 2.45101C86.0448 2.70901 84.9465 2.49901 83.889 2.73901C83.3226 2.84301 82.746 2.78301 82.1754 2.82901C73.7236 3.95501 65.2432 5.02701 56.9238 6.91701C55.5586 7.24301 54.1058 7.45101 52.9403 8.28501C50.9211 9.62101 50.1407 12.033 49.5009 14.217C48.8122 17.039 48.3211 19.907 47.9482 22.783C47.938 24.587 47.7404 26.499 48.5289 28.185C48.7592 28.735 49.3766 29.243 50.0062 28.961C52.0377 28.275 54.1038 27.695 56.1454 27.041C56.8463 26.853 57.1357 26.139 57.5167 25.607C58.5803 24.145 59.593 22.625 60.2511 20.939C58.4682 22.209 56.2819 22.675 54.2851 23.503C53.2215 24.055 52.1905 24.699 51.3408 25.543C51.0311 25.843 50.6867 26.103 50.3078 26.315C50.8946 23.991 53.2174 22.835 55.1368 21.701C53.957 21.231 52.8751 20.535 51.9643 19.665C51.571 19.275 51.1126 18.919 50.9027 18.395C51.2165 18.427 51.5812 18.341 51.8461 18.565C53.3193 19.551 54.9616 20.277 56.6792 20.739C57.2681 20.961 57.8162 20.555 58.346 20.363C58.3175 18.289 57.8183 16.169 56.7119 14.385C56.4449 14.057 56.6955 13.653 56.7485 13.305C57.1927 13.443 57.6206 13.675 57.8407 14.097C58.8248 15.711 59.6134 17.459 60.0351 19.297C60.5832 18.991 61.1436 18.657 61.5144 18.141C61.8465 17.121 62.0095 16.051 62.1726 14.993C62.2479 13.599 61.8506 12.225 61.3514 10.933C62.6514 11.851 63.6274 13.233 63.9351 14.785C64.3996 17.635 63.6885 20.531 62.5189 23.135C60.7646 25.003 58.7087 26.645 57.3394 28.837C56.9706 29.457 56.5162 30.079 56.4408 30.815C56.4225 31.683 57.046 32.375 57.6919 32.891C59.9985 30.995 62.3885 29.167 65.0252 27.731C66.0093 27.195 67.075 26.827 68.1406 26.479C70.2271 25.523 71.957 23.975 73.5463 22.367C75.7856 20.261 77.7661 17.879 79.388 15.283C79.6998 14.847 80.1664 14.453 80.7288 14.411C82.4383 14.235 84.103 14.795 85.676 15.385C87.2164 15.935 88.6753 16.673 90.1138 17.439C90.1138 17.589 90.1159 17.889 90.1159 18.039C88.3248 17.637 86.4462 17.583 84.649 17.979C82.5055 18.547 80.6615 19.887 79.1619 21.457C76.1687 24.567 72.2667 26.613 68.3933 28.467C67.403 29.005 66.3027 29.319 65.3349 29.899C63.6253 30.811 61.9321 31.827 60.624 33.263C59.9577 34.011 58.9369 34.581 57.8998 34.357C56.8545 34.121 55.689 33.753 55.1348 32.773C54.7191 32.177 54.8882 31.425 54.8658 30.753C53.1889 31.005 51.7157 32.071 49.9817 32.031C49.0424 32.093 47.9747 31.933 47.3655 31.153C46.5627 30.019 46.1266 28.653 46.0492 27.279C45.4461 29.243 44.572 31.475 42.4672 32.291C40.6782 33.105 38.7832 32.135 37.1776 31.355C37.308 33.597 34.9791 35.291 32.8416 35.195C31.5641 35.041 30.5677 34.171 29.7649 33.247C28.8847 32.215 27.7396 31.451 26.5333 30.833C23.5523 29.197 20.3737 27.951 17.35 26.397C14.4423 25.045 11.8689 23.031 9.85983 20.567C8.76158 19.553 7.59405 18.465 6.07198 18.135C4.09145 17.673 1.99071 17.649 0 18.061C0.0305636 17.921 0.0937286 17.637 0.124292 17.497C2.3208 16.369 4.53768 15.205 6.9624 14.631C7.92821 14.379 8.9633 14.293 9.94337 14.517C10.7808 14.693 11.0457 15.577 11.4756 16.189C12.6472 17.879 13.9187 19.509 15.3694 20.977C15.9033 21.587 16.4127 22.221 17.0219 22.763C18.7396 24.189 20.3758 25.825 22.5397 26.587C24.9277 27.375 27.0284 28.765 29.1496 30.065C30.0257 30.643 30.8469 31.321 31.4969 32.145C31.9247 32.605 32.3873 33.171 33.0719 33.223C33.889 33.217 34.5349 32.651 35.1115 32.151C35.1869 31.051 34.9974 29.775 34.0601 29.051C32.426 27.849 30.8204 26.611 29.1842 25.411C28.9906 25.263 28.7767 25.111 28.7156 24.861C28.3305 23.805 28.2041 22.623 28.5464 21.539C28.74 20.911 29.1597 20.389 29.4735 19.817C28.6239 19.857 27.7885 19.711 26.9714 19.501C24.2553 18.935 21.4842 17.909 19.5628 15.861C18.3463 14.533 17.57 12.829 17.3357 11.061C18.1018 11.783 18.5399 12.769 19.3509 13.453C20.6957 14.881 22.3522 16.031 24.2044 16.731C25.4208 17.125 26.7045 17.263 27.982 17.211C30.6798 17.461 33.3531 18.129 35.79 19.307C37.7583 20.231 39.5881 21.613 40.6578 23.515C41.0572 24.175 41.1753 24.943 41.3995 25.669C41.0979 25.869 40.7984 26.073 40.5009 26.279C40.2931 25.361 39.7511 24.561 39.0216 23.961C37.1654 22.409 34.9424 21.325 32.6399 20.571C31.1851 21.351 31.3746 23.559 32.7398 24.333C35.5863 26.371 38.4776 28.349 41.3302 30.379C42.5751 30.485 43.5899 29.345 43.9383 28.243C44.7676 26.399 44.4192 24.357 44.4701 22.409C44.358 21.259 44.1482 20.119 43.9648 18.979C43.3698 16.149 42.9786 13.215 41.6195 10.613C40.7189 9.10101 39.5045 7.70701 37.905 6.88501C36.5276 6.20501 34.975 6.01701 33.4733 5.77301C26.7717 4.64901 20.0273 3.76701 13.2667 3.14301C11.7935 2.99301 10.3264 2.78701 8.84512 2.77501C7.77743 2.49501 6.66491 2.72301 5.59518 2.47901C4.63345 2.29901 3.64115 2.51901 2.68145 2.31901C1.99479 2.16101 1.28775 2.21301 0.590897 2.20101C0.66425 1.94301 0.741679 1.68501 0.84152 1.43501C2.83019 1.38701 4.79034 0.935008 6.78309 1.00701Z" fill="white"/>
</svg>
